%TF.GenerationSoftware,KiCad,Pcbnew,(6.0.7)*%
%TF.CreationDate,2023-01-25T09:18:12-05:00*%
%TF.ProjectId,amp,616d702e-6b69-4636-9164-5f7063625858,0.0*%
%TF.SameCoordinates,Original*%
%TF.FileFunction,Soldermask,Top*%
%TF.FilePolarity,Negative*%
%FSLAX46Y46*%
G04 Gerber Fmt 4.6, Leading zero omitted, Abs format (unit mm)*
G04 Created by KiCad (PCBNEW (6.0.7)) date 2023-01-25 09:18:12*
%MOMM*%
%LPD*%
G01*
G04 APERTURE LIST*
G04 Aperture macros list*
%AMRoundRect*
0 Rectangle with rounded corners*
0 $1 Rounding radius*
0 $2 $3 $4 $5 $6 $7 $8 $9 X,Y pos of 4 corners*
0 Add a 4 corners polygon primitive as box body*
4,1,4,$2,$3,$4,$5,$6,$7,$8,$9,$2,$3,0*
0 Add four circle primitives for the rounded corners*
1,1,$1+$1,$2,$3*
1,1,$1+$1,$4,$5*
1,1,$1+$1,$6,$7*
1,1,$1+$1,$8,$9*
0 Add four rect primitives between the rounded corners*
20,1,$1+$1,$2,$3,$4,$5,0*
20,1,$1+$1,$4,$5,$6,$7,0*
20,1,$1+$1,$6,$7,$8,$9,0*
20,1,$1+$1,$8,$9,$2,$3,0*%
%AMRotRect*
0 Rectangle, with rotation*
0 The origin of the aperture is its center*
0 $1 length*
0 $2 width*
0 $3 Rotation angle, in degrees counterclockwise*
0 Add horizontal line*
21,1,$1,$2,0,0,$3*%
G04 Aperture macros list end*
%TA.AperFunction,Profile*%
%ADD10C,1.000000*%
%TD*%
%ADD11R,2.500000X2.500000*%
%ADD12C,0.500000*%
%ADD13RoundRect,0.135000X-0.185000X0.135000X-0.185000X-0.135000X0.185000X-0.135000X0.185000X0.135000X0*%
%ADD14R,2.590800X2.997200*%
%ADD15R,0.609600X0.304800*%
%ADD16C,0.200000*%
%ADD17RoundRect,0.140000X0.140000X0.170000X-0.140000X0.170000X-0.140000X-0.170000X0.140000X-0.170000X0*%
%ADD18RoundRect,0.250000X0.450000X-0.262500X0.450000X0.262500X-0.450000X0.262500X-0.450000X-0.262500X0*%
%ADD19RoundRect,0.200000X-0.275000X0.200000X-0.275000X-0.200000X0.275000X-0.200000X0.275000X0.200000X0*%
%ADD20RoundRect,0.250001X-0.799999X1.999999X-0.799999X-1.999999X0.799999X-1.999999X0.799999X1.999999X0*%
%ADD21RoundRect,0.250000X-0.450000X0.325000X-0.450000X-0.325000X0.450000X-0.325000X0.450000X0.325000X0*%
%ADD22RoundRect,0.250000X-0.250000X-0.475000X0.250000X-0.475000X0.250000X0.475000X-0.250000X0.475000X0*%
%ADD23RoundRect,0.140000X-0.140000X-0.170000X0.140000X-0.170000X0.140000X0.170000X-0.140000X0.170000X0*%
%ADD24C,1.905000*%
%ADD25RoundRect,0.140000X0.170000X-0.140000X0.170000X0.140000X-0.170000X0.140000X-0.170000X-0.140000X0*%
%ADD26RoundRect,0.135000X0.185000X-0.135000X0.185000X0.135000X-0.185000X0.135000X-0.185000X-0.135000X0*%
%ADD27C,1.000000*%
%ADD28RoundRect,0.200000X0.200000X0.275000X-0.200000X0.275000X-0.200000X-0.275000X0.200000X-0.275000X0*%
%ADD29RoundRect,0.250000X0.475000X-0.250000X0.475000X0.250000X-0.475000X0.250000X-0.475000X-0.250000X0*%
%ADD30C,2.000000*%
%ADD31C,2.800000*%
%ADD32R,2.400000X2.400000*%
%ADD33C,2.400000*%
%ADD34RoundRect,0.225000X0.250000X-0.225000X0.250000X0.225000X-0.250000X0.225000X-0.250000X-0.225000X0*%
%ADD35RoundRect,0.250000X-0.132583X0.503814X-0.503814X0.132583X0.132583X-0.503814X0.503814X-0.132583X0*%
%ADD36RoundRect,0.250000X-0.475000X0.250000X-0.475000X-0.250000X0.475000X-0.250000X0.475000X0.250000X0*%
%ADD37RoundRect,0.250000X0.362500X1.425000X-0.362500X1.425000X-0.362500X-1.425000X0.362500X-1.425000X0*%
%ADD38RoundRect,0.150000X-0.150000X0.825000X-0.150000X-0.825000X0.150000X-0.825000X0.150000X0.825000X0*%
%ADD39RoundRect,0.200000X0.275000X-0.200000X0.275000X0.200000X-0.275000X0.200000X-0.275000X-0.200000X0*%
%ADD40RoundRect,0.250000X0.262500X0.450000X-0.262500X0.450000X-0.262500X-0.450000X0.262500X-0.450000X0*%
%ADD41R,0.400000X0.650000*%
%ADD42R,1.700000X1.700000*%
%ADD43O,1.700000X1.700000*%
%ADD44R,1.460500X0.533400*%
%ADD45RoundRect,0.150000X-0.150000X0.512500X-0.150000X-0.512500X0.150000X-0.512500X0.150000X0.512500X0*%
%ADD46RoundRect,0.250000X0.250000X0.475000X-0.250000X0.475000X-0.250000X-0.475000X0.250000X-0.475000X0*%
%ADD47RoundRect,0.250000X-0.325000X-0.450000X0.325000X-0.450000X0.325000X0.450000X-0.325000X0.450000X0*%
%ADD48RoundRect,0.140000X-0.170000X0.140000X-0.170000X-0.140000X0.170000X-0.140000X0.170000X0.140000X0*%
%ADD49RoundRect,0.312500X1.661701X-1.219759X-1.219759X1.661701X-1.661701X1.219759X1.219759X-1.661701X0*%
%ADD50RoundRect,0.200000X-0.200000X-0.275000X0.200000X-0.275000X0.200000X0.275000X-0.200000X0.275000X0*%
%ADD51RoundRect,0.250000X-0.450000X0.262500X-0.450000X-0.262500X0.450000X-0.262500X0.450000X0.262500X0*%
%ADD52RoundRect,0.150000X-0.150000X0.587500X-0.150000X-0.587500X0.150000X-0.587500X0.150000X0.587500X0*%
%ADD53RoundRect,0.250000X0.689429X0.229810X0.229810X0.689429X-0.689429X-0.229810X-0.229810X-0.689429X0*%
%ADD54RoundRect,0.250000X-0.159099X0.512652X-0.512652X0.159099X0.159099X-0.512652X0.512652X-0.159099X0*%
%ADD55RoundRect,0.250001X-1.999999X-0.799999X1.999999X-0.799999X1.999999X0.799999X-1.999999X0.799999X0*%
%ADD56RoundRect,0.225000X-0.250000X0.225000X-0.250000X-0.225000X0.250000X-0.225000X0.250000X0.225000X0*%
%ADD57R,0.300000X0.850000*%
%ADD58R,0.600000X0.450000*%
%ADD59C,1.524000*%
%ADD60RoundRect,0.250000X-0.262500X-0.450000X0.262500X-0.450000X0.262500X0.450000X-0.262500X0.450000X0*%
%ADD61C,2.209800*%
%ADD62R,2.209800X2.794000*%
%ADD63R,2.794000X2.794000*%
%ADD64RoundRect,0.135000X0.135000X0.185000X-0.135000X0.185000X-0.135000X-0.185000X0.135000X-0.185000X0*%
%ADD65RoundRect,0.250000X0.512652X0.159099X0.159099X0.512652X-0.512652X-0.159099X-0.159099X-0.512652X0*%
%ADD66RoundRect,0.150000X-0.825000X-0.150000X0.825000X-0.150000X0.825000X0.150000X-0.825000X0.150000X0*%
%ADD67C,1.600000*%
%ADD68R,2.286000X1.854500*%
%ADD69RoundRect,0.062500X0.362500X0.062500X-0.362500X0.062500X-0.362500X-0.062500X0.362500X-0.062500X0*%
%ADD70R,1.600000X2.500000*%
%ADD71RoundRect,0.225000X0.225000X0.250000X-0.225000X0.250000X-0.225000X-0.250000X0.225000X-0.250000X0*%
%ADD72R,2.900000X5.400000*%
%ADD73RoundRect,0.250000X-0.229810X0.689429X-0.689429X0.229810X0.229810X-0.689429X0.689429X-0.229810X0*%
%ADD74RoundRect,0.150000X0.150000X-0.825000X0.150000X0.825000X-0.150000X0.825000X-0.150000X-0.825000X0*%
%ADD75RoundRect,0.150000X0.150000X-0.512500X0.150000X0.512500X-0.150000X0.512500X-0.150000X-0.512500X0*%
%ADD76R,1.100000X1.100000*%
%ADD77RoundRect,0.750000X-0.750000X-0.875000X0.750000X-0.875000X0.750000X0.875000X-0.750000X0.875000X0*%
%ADD78R,2.700000X3.600000*%
%ADD79RotRect,1.100000X1.100000X225.000000*%
%ADD80RoundRect,0.250000X0.325000X0.450000X-0.325000X0.450000X-0.325000X-0.450000X0.325000X-0.450000X0*%
%ADD81RoundRect,0.250000X-0.325000X-0.650000X0.325000X-0.650000X0.325000X0.650000X-0.325000X0.650000X0*%
%ADD82RoundRect,0.250000X0.325000X0.650000X-0.325000X0.650000X-0.325000X-0.650000X0.325000X-0.650000X0*%
%ADD83C,0.400000*%
G04 APERTURE END LIST*
D10*
X161080000Y-150000000D02*
X247000000Y-150000000D01*
X247000000Y-150000000D02*
X247000000Y-314760000D01*
X247000000Y-314760000D02*
X161080000Y-314760000D01*
X161080000Y-314760000D02*
X161080000Y-150000000D01*
D11*
%TO.C,*%
X167000000Y-229300000D03*
%TD*%
D12*
%TO.C,REF\u002A\u002A*%
X219500000Y-252900000D03*
%TD*%
%TO.C,*%
X219500000Y-252900000D03*
%TD*%
%TO.C,REF\u002A\u002A*%
X187400000Y-258400000D03*
%TD*%
%TO.C,*%
X187400000Y-258400000D03*
%TD*%
%TO.C,REF\u002A\u002A*%
X216200000Y-254000000D03*
%TD*%
%TO.C,*%
X216200000Y-254000000D03*
%TD*%
%TO.C,REF\u002A\u002A*%
X189600000Y-257200000D03*
%TD*%
%TO.C,*%
X189600000Y-257200000D03*
%TD*%
%TO.C,REF\u002A\u002A*%
X225300000Y-165600000D03*
%TD*%
%TO.C,*%
X225300000Y-165600000D03*
%TD*%
%TO.C,REF\u002A\u002A*%
X213900000Y-165600000D03*
%TD*%
%TO.C,*%
X213900000Y-165600000D03*
%TD*%
%TO.C,REF\u002A\u002A*%
X229000000Y-219700000D03*
%TD*%
%TO.C,*%
X229000000Y-219700000D03*
%TD*%
%TO.C,REF\u002A\u002A*%
X221700000Y-219700000D03*
%TD*%
%TO.C,*%
X221700000Y-219700000D03*
%TD*%
%TO.C,REF\u002A\u002A*%
X223800000Y-261300000D03*
%TD*%
%TO.C,*%
X223800000Y-261300000D03*
%TD*%
%TO.C,REF\u002A\u002A*%
X225400000Y-257700000D03*
%TD*%
%TO.C,*%
X225400000Y-257700000D03*
%TD*%
%TO.C,REF\u002A\u002A*%
X211100000Y-283500000D03*
%TD*%
%TO.C,*%
X211100000Y-283500000D03*
%TD*%
%TO.C,REF\u002A\u002A*%
X175800000Y-286100000D03*
%TD*%
%TO.C,*%
X175800000Y-286100000D03*
%TD*%
%TO.C,REF\u002A\u002A*%
X177900000Y-279900000D03*
%TD*%
%TO.C,*%
X177900000Y-279900000D03*
%TD*%
%TO.C,REF\u002A\u002A*%
X177900000Y-284000000D03*
%TD*%
%TO.C,*%
X177900000Y-284000000D03*
%TD*%
%TO.C,REF\u002A\u002A*%
X184900000Y-234700000D03*
%TD*%
%TO.C,*%
X184900000Y-234700000D03*
%TD*%
%TO.C,REF\u002A\u002A*%
X186000000Y-241200000D03*
%TD*%
%TO.C,*%
X186000000Y-241200000D03*
%TD*%
%TO.C,REF\u002A\u002A*%
X234500000Y-269500000D03*
%TD*%
%TO.C,*%
X234500000Y-269500000D03*
%TD*%
%TO.C,REF\u002A\u002A*%
X222500000Y-273700000D03*
%TD*%
%TO.C,*%
X222500000Y-273700000D03*
%TD*%
%TO.C,REF\u002A\u002A*%
X178000000Y-269700000D03*
%TD*%
%TO.C,*%
X178000000Y-269700000D03*
%TD*%
%TO.C,REF\u002A\u002A*%
X190300000Y-274000000D03*
%TD*%
%TO.C,*%
X190300000Y-274000000D03*
%TD*%
%TO.C,REF\u002A\u002A*%
X206700000Y-237300000D03*
%TD*%
%TO.C,*%
X206700000Y-237300000D03*
%TD*%
%TO.C,REF\u002A\u002A*%
X203600000Y-237300000D03*
%TD*%
%TO.C,*%
X203600000Y-237300000D03*
%TD*%
%TO.C,REF\u002A\u002A*%
X213200000Y-239000000D03*
%TD*%
%TO.C,*%
X213200000Y-239000000D03*
%TD*%
%TO.C,REF\u002A\u002A*%
X213200000Y-241300000D03*
%TD*%
%TO.C,*%
X213200000Y-241300000D03*
%TD*%
%TO.C,REF\u002A\u002A*%
X192800000Y-243399999D03*
%TD*%
%TO.C,*%
X192800000Y-243399999D03*
%TD*%
%TO.C,REF\u002A\u002A*%
X192800000Y-245600000D03*
%TD*%
%TO.C,*%
X192800000Y-245600000D03*
%TD*%
%TO.C,REF\u002A\u002A*%
X200700000Y-253400000D03*
%TD*%
%TO.C,*%
X200700000Y-253400000D03*
%TD*%
%TO.C,REF\u002A\u002A*%
X206800000Y-249800000D03*
%TD*%
%TO.C,*%
X206800000Y-249800000D03*
%TD*%
%TO.C,REF\u002A\u002A*%
X189400000Y-265600000D03*
%TD*%
%TO.C,*%
X189400000Y-265600000D03*
%TD*%
%TO.C,REF\u002A\u002A*%
X196800000Y-262900000D03*
%TD*%
%TO.C,*%
X196800000Y-262900000D03*
%TD*%
%TO.C,REF\u002A\u002A*%
X218200000Y-260700000D03*
%TD*%
%TO.C,*%
X218200000Y-260700000D03*
%TD*%
%TO.C,*%
X202900000Y-269100000D03*
%TD*%
%TO.C,REF\u002A\u002A*%
X202900000Y-269100000D03*
%TD*%
%TO.C,REF\u002A\u002A*%
X210200000Y-269100000D03*
%TD*%
%TO.C,*%
X210200000Y-269100000D03*
%TD*%
%TO.C,REF\u002A\u002A*%
X210500000Y-261700000D03*
%TD*%
D13*
%TO.C,R61*%
X223526800Y-258429300D03*
X223526800Y-257409300D03*
%TD*%
D14*
%TO.C,U14*%
X220539300Y-257239300D03*
D15*
X218634300Y-258839299D03*
X218634300Y-258039301D03*
X218634300Y-257239300D03*
X218634300Y-256439302D03*
X218634300Y-255639301D03*
X222444300Y-255639301D03*
X222444300Y-256439299D03*
X222444300Y-257239300D03*
X222444300Y-258039298D03*
X222444300Y-258839299D03*
%TD*%
D11*
%TO.C,*%
X208800000Y-278300000D03*
%TD*%
D16*
%TO.C,Q2*%
X191931500Y-265050000D03*
X191481500Y-265050000D03*
X191031500Y-265050000D03*
X191931500Y-265500000D03*
X191481500Y-265500000D03*
X191031500Y-265500000D03*
X191931500Y-265950000D03*
X191481500Y-265950000D03*
X191031500Y-265950000D03*
%TD*%
D17*
%TO.C,C59*%
X216446800Y-256221300D03*
X217406800Y-256221300D03*
%TD*%
D18*
%TO.C,R27*%
X202184000Y-156146500D03*
X202184000Y-154321500D03*
%TD*%
D19*
%TO.C,R70*%
X202600000Y-256475000D03*
X202600000Y-258125000D03*
%TD*%
D20*
%TO.C,C15*%
X208788000Y-286722000D03*
X208788000Y-293922000D03*
%TD*%
D21*
%TO.C,L3*%
X172068000Y-241413000D03*
X172068000Y-243463000D03*
%TD*%
D22*
%TO.C,C64*%
X217622500Y-248374000D03*
X219522500Y-248374000D03*
%TD*%
D23*
%TO.C,C12*%
X205522000Y-262440000D03*
X206482000Y-262440000D03*
%TD*%
D24*
%TO.C,J2*%
X168135900Y-293324000D03*
X176835903Y-293324000D03*
X168135900Y-298404000D03*
X176835903Y-298404000D03*
%TD*%
D25*
%TO.C,C34*%
X171600000Y-239180000D03*
X171600000Y-238220000D03*
%TD*%
D26*
%TO.C,R71*%
X222826800Y-262829300D03*
X222826800Y-261809300D03*
%TD*%
D27*
%TO.C,TP20*%
X211902500Y-242278000D03*
%TD*%
D28*
%TO.C,R80*%
X222125000Y-166300000D03*
X220475000Y-166300000D03*
%TD*%
D11*
%TO.C,TP2*%
X181102000Y-308610000D03*
%TD*%
D29*
%TO.C,C44*%
X177656000Y-242372000D03*
X177656000Y-240472000D03*
%TD*%
D18*
%TO.C,R18*%
X216662000Y-177990500D03*
X216662000Y-176165500D03*
%TD*%
%TO.C,R32*%
X188468000Y-156146500D03*
X188468000Y-154321500D03*
%TD*%
D30*
%TO.C,R30*%
X192064000Y-158790000D03*
X191264000Y-164040000D03*
X192064000Y-217290000D03*
X188564000Y-158790000D03*
X189364000Y-211840000D03*
X188564000Y-217290000D03*
D31*
X194564000Y-164040000D03*
X194564000Y-211840000D03*
X186064000Y-162940000D03*
X186064000Y-213140000D03*
%TD*%
D32*
%TO.C,C79*%
X171620459Y-267500000D03*
D33*
X166620459Y-267500000D03*
%TD*%
D34*
%TO.C,C84*%
X223400000Y-197675000D03*
X223400000Y-196125000D03*
%TD*%
D35*
%TO.C,R49*%
X185895235Y-242854765D03*
X184604765Y-244145235D03*
%TD*%
D36*
%TO.C,C38*%
X186952000Y-225780000D03*
X186952000Y-227680000D03*
%TD*%
D23*
%TO.C,C8*%
X208380000Y-262000000D03*
X207420000Y-262000000D03*
%TD*%
D18*
%TO.C,R66*%
X215778500Y-246492500D03*
X215778500Y-244667500D03*
%TD*%
D27*
%TO.C,TP21*%
X194122500Y-246596000D03*
%TD*%
D37*
%TO.C,R3*%
X187620500Y-304800000D03*
X181695500Y-304800000D03*
%TD*%
D38*
%TO.C,U8*%
X184345000Y-220025000D03*
X183075000Y-220025000D03*
X181805000Y-220025000D03*
X180535000Y-220025000D03*
X180535000Y-224975000D03*
X181805000Y-224975000D03*
X183075000Y-224975000D03*
X184345000Y-224975000D03*
%TD*%
D39*
%TO.C,R10*%
X209400000Y-254075000D03*
X209400000Y-255725000D03*
%TD*%
D40*
%TO.C,R23*%
X164234500Y-286512000D03*
X162409500Y-286512000D03*
%TD*%
D41*
%TO.C,U16*%
X217444500Y-250218000D03*
X216794500Y-250218000D03*
X216144500Y-250218000D03*
X216144500Y-252118000D03*
X216794500Y-252118000D03*
X217444500Y-252118000D03*
%TD*%
D30*
%TO.C,R11*%
X231930000Y-217250000D03*
X232730000Y-212000000D03*
X231930000Y-158750000D03*
X235430000Y-217250000D03*
X234630000Y-164200000D03*
X235430000Y-158750000D03*
D31*
X229430000Y-212000000D03*
X229430000Y-164200000D03*
X237930000Y-213100000D03*
X237930000Y-162900000D03*
%TD*%
D28*
%TO.C,R12*%
X203925000Y-251300000D03*
X202275000Y-251300000D03*
%TD*%
D42*
%TO.C,JP1*%
X205735000Y-298704000D03*
D43*
X208275000Y-298704000D03*
%TD*%
D19*
%TO.C,R39*%
X172576000Y-235009000D03*
X172576000Y-236659000D03*
%TD*%
D44*
%TO.C,U13*%
X201672650Y-245961000D03*
X201672650Y-244691000D03*
X201672650Y-243421000D03*
X201672650Y-242151000D03*
X196224350Y-242151000D03*
X196224350Y-243421000D03*
X196224350Y-244691000D03*
X196224350Y-245961000D03*
%TD*%
D45*
%TO.C,U3*%
X207714000Y-258188500D03*
X206764000Y-258188500D03*
X205814000Y-258188500D03*
X205814000Y-260463500D03*
X207714000Y-260463500D03*
%TD*%
D36*
%TO.C,C51*%
X202504500Y-229136000D03*
X202504500Y-231036000D03*
%TD*%
D44*
%TO.C,U12*%
X204352350Y-240881000D03*
X204352350Y-242151000D03*
X204352350Y-243421000D03*
X204352350Y-244691000D03*
X209800650Y-244691000D03*
X209800650Y-243421000D03*
X209800650Y-242151000D03*
X209800650Y-240881000D03*
%TD*%
D46*
%TO.C,C65*%
X215966500Y-248374000D03*
X214066500Y-248374000D03*
%TD*%
D40*
%TO.C,R5*%
X218574500Y-228000000D03*
X216749500Y-228000000D03*
%TD*%
D26*
%TO.C,R72*%
X194250000Y-266490000D03*
X194250000Y-267510000D03*
%TD*%
D22*
%TO.C,C66*%
X191933500Y-252733000D03*
X193833500Y-252733000D03*
%TD*%
D47*
%TO.C,D6*%
X165853000Y-284480000D03*
X167903000Y-284480000D03*
%TD*%
D48*
%TO.C,C74*%
X192750000Y-266020000D03*
X192750000Y-266980000D03*
%TD*%
D49*
%TO.C,L6*%
X179688000Y-235834000D03*
X181986097Y-233535903D03*
%TD*%
D48*
%TO.C,C80*%
X193100000Y-255620000D03*
X193100000Y-256580000D03*
%TD*%
D50*
%TO.C,R47*%
X171497000Y-245232000D03*
X173147000Y-245232000D03*
%TD*%
D51*
%TO.C,R78*%
X176662500Y-269127500D03*
X176662500Y-270952500D03*
%TD*%
D39*
%TO.C,R38*%
X176132000Y-245803000D03*
X176132000Y-244153000D03*
%TD*%
D52*
%TO.C,D13*%
X188026500Y-248706500D03*
X186126500Y-248706500D03*
X187076500Y-250581500D03*
%TD*%
D53*
%TO.C,C81*%
X216434983Y-279172983D03*
X214349017Y-277087017D03*
%TD*%
D13*
%TO.C,R59*%
X225026800Y-258609300D03*
X225026800Y-259629300D03*
%TD*%
D54*
%TO.C,C47*%
X176421751Y-230578249D03*
X175078249Y-231921751D03*
%TD*%
D19*
%TO.C,R82*%
X214500000Y-190575000D03*
X214500000Y-192225000D03*
%TD*%
D29*
%TO.C,C4*%
X218500000Y-231950000D03*
X218500000Y-230050000D03*
%TD*%
D13*
%TO.C,R56*%
X217426800Y-255207300D03*
X217426800Y-254187300D03*
%TD*%
D55*
%TO.C,C17*%
X229800000Y-282300000D03*
X222600000Y-282300000D03*
%TD*%
D40*
%TO.C,R13*%
X164234500Y-288544000D03*
X162409500Y-288544000D03*
%TD*%
D18*
%TO.C,R65*%
X217810500Y-246492500D03*
X217810500Y-244667500D03*
%TD*%
D52*
%TO.C,D11*%
X213934500Y-244388500D03*
X212034500Y-244388500D03*
X212984500Y-246263500D03*
%TD*%
D11*
%TO.C,TP15*%
X175800000Y-284000000D03*
%TD*%
D47*
%TO.C,D7*%
X165853000Y-282448000D03*
X167903000Y-282448000D03*
%TD*%
D48*
%TO.C,C28*%
X214800000Y-251420000D03*
X214800000Y-252380000D03*
%TD*%
D15*
%TO.C,U15*%
X193553500Y-263755999D03*
X193553500Y-262955998D03*
X193553500Y-262156000D03*
X193553500Y-261355999D03*
X193553500Y-260556001D03*
X189743500Y-260556001D03*
X189743500Y-261356002D03*
X189743500Y-262156000D03*
X189743500Y-262956001D03*
X189743500Y-263755999D03*
D14*
X191648500Y-262156000D03*
%TD*%
D56*
%TO.C,C85*%
X172000000Y-225425000D03*
X172000000Y-226975000D03*
%TD*%
D28*
%TO.C,R48*%
X174163000Y-233548000D03*
X172513000Y-233548000D03*
%TD*%
D57*
%TO.C,U10*%
X190488000Y-290388000D03*
X189988000Y-290388000D03*
X189488000Y-290388000D03*
X188988000Y-290388000D03*
X188988000Y-292288000D03*
X189488000Y-292288000D03*
X189988000Y-292288000D03*
X190488000Y-292288000D03*
%TD*%
D58*
%TO.C,D4*%
X175912000Y-242438000D03*
X173812000Y-242438000D03*
%TD*%
D59*
%TO.C,K1*%
X199979000Y-296404000D03*
X181479000Y-301104000D03*
X188479000Y-301104000D03*
X199979000Y-301104000D03*
%TD*%
D16*
%TO.C,Q1*%
X220781800Y-260064300D03*
X220331800Y-260064300D03*
X219881800Y-260064300D03*
X220781800Y-260514300D03*
X220331800Y-260514300D03*
X219881800Y-260514300D03*
X220781800Y-260964300D03*
X220331800Y-260964300D03*
X219881800Y-260964300D03*
%TD*%
D18*
%TO.C,R67*%
X192121500Y-250851500D03*
X192121500Y-249026500D03*
%TD*%
D11*
%TO.C,TP9*%
X180600000Y-284000000D03*
%TD*%
D40*
%TO.C,R51*%
X164234500Y-284480000D03*
X162409500Y-284480000D03*
%TD*%
D53*
%TO.C,C26*%
X219990983Y-275616983D03*
X217905017Y-273531017D03*
%TD*%
D60*
%TO.C,R77*%
X231102500Y-264250000D03*
X232927500Y-264250000D03*
%TD*%
D58*
%TO.C,D5*%
X174896000Y-238374000D03*
X172796000Y-238374000D03*
%TD*%
D39*
%TO.C,R83*%
X227200000Y-222825000D03*
X227200000Y-221175000D03*
%TD*%
D41*
%TO.C,U17*%
X191790500Y-254536000D03*
X191140500Y-254536000D03*
X190490500Y-254536000D03*
X190490500Y-256436000D03*
X191140500Y-256436000D03*
X191790500Y-256436000D03*
%TD*%
D36*
%TO.C,C50*%
X207584500Y-229136000D03*
X207584500Y-231036000D03*
%TD*%
D60*
%TO.C,R34*%
X188805500Y-152112000D03*
X190630500Y-152112000D03*
%TD*%
D18*
%TO.C,R14*%
X216916000Y-188658500D03*
X216916000Y-186833500D03*
%TD*%
D61*
%TO.C,J4*%
X241882199Y-241002000D03*
X234882201Y-241002000D03*
D62*
X240982158Y-244702018D03*
X242982200Y-237302000D03*
D63*
X233582201Y-237302000D03*
%TD*%
D61*
%TO.C,J3*%
X241814199Y-229024000D03*
X234814201Y-229024000D03*
D62*
X240914158Y-232724018D03*
X242914200Y-225324000D03*
D63*
X233514201Y-225324000D03*
%TD*%
D29*
%TO.C,C82*%
X163686000Y-238950000D03*
X163686000Y-237050000D03*
%TD*%
D18*
%TO.C,R17*%
X224282000Y-186626500D03*
X224282000Y-184801500D03*
%TD*%
D48*
%TO.C,C87*%
X204800000Y-246120000D03*
X204800000Y-247080000D03*
%TD*%
D27*
%TO.C,TP13*%
X224200000Y-166700000D03*
%TD*%
D36*
%TO.C,C36*%
X184658000Y-183240000D03*
X184658000Y-185140000D03*
%TD*%
D54*
%TO.C,C49*%
X184421751Y-236078249D03*
X183078249Y-237421751D03*
%TD*%
D19*
%TO.C,R2*%
X209050000Y-266313000D03*
X209050000Y-264663000D03*
%TD*%
D40*
%TO.C,R37*%
X190912500Y-228000000D03*
X189087500Y-228000000D03*
%TD*%
D36*
%TO.C,C5*%
X229500000Y-225800000D03*
X229500000Y-227700000D03*
%TD*%
D27*
%TO.C,TP12*%
X215000000Y-166700000D03*
%TD*%
D64*
%TO.C,R57*%
X190634500Y-258346000D03*
X189614500Y-258346000D03*
%TD*%
D27*
%TO.C,TP4*%
X203970000Y-268000000D03*
%TD*%
%TO.C,TP1*%
X209050000Y-268000000D03*
%TD*%
D32*
%TO.C,C9*%
X228600000Y-295148000D03*
D33*
X233600000Y-295148000D03*
%TD*%
D65*
%TO.C,C48*%
X179921751Y-238921751D03*
X178578249Y-237578249D03*
%TD*%
D66*
%TO.C,U4*%
X220775000Y-225595000D03*
X220775000Y-226865000D03*
X220775000Y-228135000D03*
X220775000Y-229405000D03*
X225725000Y-229405000D03*
X225725000Y-228135000D03*
X225725000Y-226865000D03*
X225725000Y-225595000D03*
%TD*%
D18*
%TO.C,R19*%
X221996000Y-177990500D03*
X221996000Y-176165500D03*
%TD*%
D67*
%TO.C,C72*%
X236200000Y-273800000D03*
X237614214Y-275214214D03*
%TD*%
D48*
%TO.C,C68*%
X221526800Y-261139300D03*
X221526800Y-262099300D03*
%TD*%
D11*
%TO.C,TP14*%
X175768000Y-288036000D03*
%TD*%
D56*
%TO.C,C19*%
X165000000Y-221475000D03*
X165000000Y-223025000D03*
%TD*%
D18*
%TO.C,R21*%
X224536000Y-172910500D03*
X224536000Y-171085500D03*
%TD*%
D53*
%TO.C,C24*%
X218212983Y-277394983D03*
X216127017Y-275309017D03*
%TD*%
D17*
%TO.C,C61*%
X188480000Y-260886000D03*
X187520000Y-260886000D03*
%TD*%
D60*
%TO.C,R53*%
X207434000Y-233134000D03*
X209259000Y-233134000D03*
%TD*%
D20*
%TO.C,C10*%
X218186000Y-286722000D03*
X218186000Y-293922000D03*
%TD*%
D32*
%TO.C,C78*%
X238103541Y-265712000D03*
D33*
X243103541Y-265712000D03*
%TD*%
D68*
%TO.C,L2*%
X185928000Y-292976250D03*
X185928000Y-289191750D03*
%TD*%
D23*
%TO.C,C60*%
X189644500Y-259362000D03*
X190604500Y-259362000D03*
%TD*%
D39*
%TO.C,R69*%
X204200000Y-258125000D03*
X204200000Y-256475000D03*
%TD*%
D18*
%TO.C,R15*%
X221742000Y-188658500D03*
X221742000Y-186833500D03*
%TD*%
D60*
%TO.C,R22*%
X178411500Y-288200000D03*
X180236500Y-288200000D03*
%TD*%
D69*
%TO.C,U11*%
X170445000Y-241402000D03*
X170445000Y-240902000D03*
X170445000Y-240402000D03*
X170445000Y-239902000D03*
X170445000Y-239402000D03*
X170445000Y-238902000D03*
X167595000Y-238902000D03*
X167595000Y-239402000D03*
X167595000Y-239902000D03*
X167595000Y-240402000D03*
X167595000Y-240902000D03*
X167595000Y-241402000D03*
D70*
X169020000Y-240152000D03*
%TD*%
D71*
%TO.C,C11*%
X224475000Y-224250000D03*
X226025000Y-224250000D03*
%TD*%
D13*
%TO.C,R64*%
X188750000Y-263740000D03*
X188750000Y-264760000D03*
%TD*%
D46*
%TO.C,C42*%
X187112000Y-152112000D03*
X185212000Y-152112000D03*
%TD*%
D36*
%TO.C,C45*%
X176386000Y-235392000D03*
X176386000Y-237292000D03*
%TD*%
D46*
%TO.C,C67*%
X190058500Y-252692000D03*
X188158500Y-252692000D03*
%TD*%
D51*
%TO.C,R6*%
X229500000Y-229587500D03*
X229500000Y-231412500D03*
%TD*%
D66*
%TO.C,U6*%
X216727000Y-180253000D03*
X216727000Y-181523000D03*
X216727000Y-182793000D03*
X216727000Y-184063000D03*
X221677000Y-184063000D03*
X221677000Y-182793000D03*
X221677000Y-181523000D03*
X221677000Y-180253000D03*
%TD*%
D56*
%TO.C,C14*%
X216138000Y-190635000D03*
X216138000Y-192185000D03*
%TD*%
D20*
%TO.C,C13*%
X199500000Y-285198000D03*
X199500000Y-292398000D03*
%TD*%
D50*
%TO.C,R84*%
X186925000Y-224500000D03*
X188575000Y-224500000D03*
%TD*%
D47*
%TO.C,D2*%
X165853000Y-288544000D03*
X167903000Y-288544000D03*
%TD*%
D72*
%TO.C,L1*%
X206378000Y-307340000D03*
X216278000Y-307340000D03*
%TD*%
D39*
%TO.C,R41*%
X174100000Y-236659000D03*
X174100000Y-235009000D03*
%TD*%
D13*
%TO.C,R60*%
X196000000Y-263688000D03*
X196000000Y-264708000D03*
%TD*%
D50*
%TO.C,R1*%
X205685000Y-267774000D03*
X207335000Y-267774000D03*
%TD*%
D11*
%TO.C,TP6*%
X223500000Y-221500000D03*
%TD*%
D73*
%TO.C,C22*%
X199416983Y-275309017D03*
X197331017Y-277394983D03*
%TD*%
D18*
%TO.C,R26*%
X205740000Y-221932500D03*
X205740000Y-220107500D03*
%TD*%
D74*
%TO.C,U2*%
X166595000Y-226475000D03*
X167865000Y-226475000D03*
X169135000Y-226475000D03*
X170405000Y-226475000D03*
X170405000Y-221525000D03*
X169135000Y-221525000D03*
X167865000Y-221525000D03*
X166595000Y-221525000D03*
%TD*%
D75*
%TO.C,U1*%
X205560000Y-266117500D03*
X206510000Y-266117500D03*
X207460000Y-266117500D03*
X207460000Y-263842500D03*
X205560000Y-263842500D03*
%TD*%
D13*
%TO.C,R58*%
X188500000Y-258852000D03*
X188500000Y-259872000D03*
%TD*%
D47*
%TO.C,D3*%
X165853000Y-286512000D03*
X167903000Y-286512000D03*
%TD*%
D11*
%TO.C,TP7*%
X230750000Y-221500000D03*
%TD*%
%TO.C,TP8*%
X213360000Y-283464000D03*
%TD*%
D56*
%TO.C,C76*%
X214600000Y-172525000D03*
X214600000Y-174075000D03*
%TD*%
D76*
%TO.C,D9*%
X196000000Y-266100000D03*
X196000000Y-268900000D03*
%TD*%
D60*
%TO.C,R35*%
X185277500Y-229778000D03*
X187102500Y-229778000D03*
%TD*%
D28*
%TO.C,R7*%
X209375000Y-257200000D03*
X211025000Y-257200000D03*
%TD*%
D46*
%TO.C,C37*%
X192700000Y-154144000D03*
X190800000Y-154144000D03*
%TD*%
D19*
%TO.C,R4*%
X203970000Y-266313000D03*
X203970000Y-264663000D03*
%TD*%
D27*
%TO.C,TP5*%
X209400000Y-260600000D03*
%TD*%
D18*
%TO.C,R31*%
X192024000Y-221932500D03*
X192024000Y-220107500D03*
%TD*%
D30*
%TO.C,R43*%
X177586000Y-158790000D03*
X176786000Y-164040000D03*
X177586000Y-217290000D03*
X174086000Y-158790000D03*
X174886000Y-211840000D03*
X174086000Y-217290000D03*
D31*
X180086000Y-164040000D03*
X180086000Y-211840000D03*
X171586000Y-162940000D03*
X171586000Y-213140000D03*
%TD*%
D77*
%TO.C,FL1*%
X190688000Y-304981000D03*
X201688000Y-304981000D03*
X190688000Y-311856000D03*
X201688000Y-311856000D03*
%TD*%
D78*
%TO.C,L8*%
X188178500Y-272062000D03*
X179878500Y-272062000D03*
%TD*%
D79*
%TO.C,D8*%
X226716749Y-260529351D03*
X224736851Y-262509249D03*
%TD*%
D80*
%TO.C,L4*%
X175887000Y-240406000D03*
X173837000Y-240406000D03*
%TD*%
D36*
%TO.C,C35*%
X195834000Y-183240000D03*
X195834000Y-185140000D03*
%TD*%
D75*
%TO.C,U9*%
X205850000Y-256237500D03*
X206800000Y-256237500D03*
X207750000Y-256237500D03*
X207750000Y-253962500D03*
X205850000Y-253962500D03*
%TD*%
D34*
%TO.C,C1*%
X203970000Y-262961000D03*
X203970000Y-261411000D03*
%TD*%
D27*
%TO.C,TP22*%
X194122500Y-244564000D03*
%TD*%
D78*
%TO.C,L7*%
X224027500Y-271200000D03*
X232327500Y-271200000D03*
%TD*%
D29*
%TO.C,C31*%
X209550000Y-185140000D03*
X209550000Y-183240000D03*
%TD*%
D49*
%TO.C,L5*%
X180815597Y-242649049D03*
X183113694Y-240350952D03*
%TD*%
D18*
%TO.C,R44*%
X177546000Y-221932500D03*
X177546000Y-220107500D03*
%TD*%
D30*
%TO.C,R25*%
X205780000Y-158790000D03*
X204980000Y-164040000D03*
X205780000Y-217290000D03*
X202280000Y-158790000D03*
X203080000Y-211840000D03*
X202280000Y-217290000D03*
D31*
X208280000Y-164040000D03*
X208280000Y-211840000D03*
X199780000Y-162940000D03*
X199780000Y-213140000D03*
%TD*%
D18*
%TO.C,R20*%
X214376000Y-170878500D03*
X214376000Y-169053500D03*
%TD*%
D19*
%TO.C,R79*%
X163400000Y-221375000D03*
X163400000Y-223025000D03*
%TD*%
D18*
%TO.C,R16*%
X214376000Y-186626500D03*
X214376000Y-184801500D03*
%TD*%
D73*
%TO.C,C20*%
X201194983Y-277087017D03*
X199109017Y-279172983D03*
%TD*%
D23*
%TO.C,C56*%
X201770000Y-247250000D03*
X202730000Y-247250000D03*
%TD*%
D52*
%TO.C,D12*%
X195865500Y-248747500D03*
X193965500Y-248747500D03*
X194915500Y-250622500D03*
%TD*%
D27*
%TO.C,TP11*%
X205700000Y-250900000D03*
%TD*%
D13*
%TO.C,R62*%
X217526800Y-258909300D03*
X217526800Y-259929300D03*
%TD*%
D67*
%TO.C,C75*%
X176154500Y-274866000D03*
X174154500Y-274866000D03*
%TD*%
D40*
%TO.C,R54*%
X202655000Y-233134000D03*
X200830000Y-233134000D03*
%TD*%
D81*
%TO.C,C2*%
X211123000Y-299212000D03*
X214073000Y-299212000D03*
%TD*%
D73*
%TO.C,C23*%
X197638983Y-273531017D03*
X195553017Y-275616983D03*
%TD*%
D32*
%TO.C,C7*%
X222974041Y-307340000D03*
D33*
X227974041Y-307340000D03*
%TD*%
D34*
%TO.C,C16*%
X185750000Y-224275000D03*
X185750000Y-222725000D03*
%TD*%
D11*
%TO.C,TP3*%
X181102000Y-312420000D03*
%TD*%
D25*
%TO.C,C39*%
X167496000Y-236878000D03*
X167496000Y-237838000D03*
%TD*%
D34*
%TO.C,C40*%
X174608000Y-245753000D03*
X174608000Y-244203000D03*
%TD*%
D56*
%TO.C,C77*%
X181000000Y-216425000D03*
X181000000Y-217975000D03*
%TD*%
D24*
%TO.C,J5*%
X238396600Y-255598000D03*
X229696597Y-255598000D03*
X229696597Y-250518000D03*
X238396600Y-250518000D03*
%TD*%
D13*
%TO.C,R55*%
X218600000Y-253410000D03*
X218600000Y-252390000D03*
%TD*%
D52*
%TO.C,D10*%
X221554500Y-244388500D03*
X219654500Y-244388500D03*
X220604500Y-246263500D03*
%TD*%
D17*
%TO.C,C53*%
X194080000Y-265000000D03*
X193120000Y-265000000D03*
%TD*%
D27*
%TO.C,TP18*%
X202504500Y-236182000D03*
%TD*%
D71*
%TO.C,C21*%
X222047000Y-167880000D03*
X220497000Y-167880000D03*
%TD*%
D23*
%TO.C,C6*%
X206556000Y-252560000D03*
X205596000Y-252560000D03*
%TD*%
D18*
%TO.C,R45*%
X173990000Y-156146500D03*
X173990000Y-154321500D03*
%TD*%
D71*
%TO.C,C86*%
X221875000Y-231000000D03*
X220325000Y-231000000D03*
%TD*%
D54*
%TO.C,C46*%
X183421751Y-245328249D03*
X182078249Y-246671751D03*
%TD*%
D29*
%TO.C,C33*%
X165718000Y-238950000D03*
X165718000Y-237050000D03*
%TD*%
D27*
%TO.C,TP19*%
X211902500Y-240246000D03*
%TD*%
D24*
%TO.C,J6*%
X181806502Y-251234000D03*
X173106499Y-251234000D03*
X173106499Y-256314000D03*
X181806502Y-256314000D03*
%TD*%
D40*
%TO.C,R36*%
X194162500Y-152144000D03*
X192337500Y-152144000D03*
%TD*%
D19*
%TO.C,R8*%
X212600000Y-255725000D03*
X212600000Y-254075000D03*
%TD*%
%TO.C,R9*%
X211000000Y-255725000D03*
X211000000Y-254075000D03*
%TD*%
D13*
%TO.C,R63*%
X194750000Y-262240000D03*
X194750000Y-263260000D03*
%TD*%
D17*
%TO.C,C52*%
X221846800Y-260119300D03*
X222806800Y-260119300D03*
%TD*%
D35*
%TO.C,R50*%
X178145235Y-231854765D03*
X176854765Y-233145235D03*
%TD*%
D23*
%TO.C,C58*%
X219495300Y-254447300D03*
X218535300Y-254447300D03*
%TD*%
D18*
%TO.C,R68*%
X189870500Y-250810500D03*
X189870500Y-248985500D03*
%TD*%
D11*
%TO.C,TP16*%
X175800000Y-279900000D03*
%TD*%
D66*
%TO.C,U7*%
X216981000Y-169585000D03*
X216981000Y-170855000D03*
X216981000Y-172125000D03*
X216981000Y-173395000D03*
X221931000Y-173395000D03*
X221931000Y-172125000D03*
X221931000Y-170855000D03*
X221931000Y-169585000D03*
%TD*%
D56*
%TO.C,C83*%
X214600000Y-181625000D03*
X214600000Y-183175000D03*
%TD*%
D28*
%TO.C,R40*%
X176195000Y-247264000D03*
X174545000Y-247264000D03*
%TD*%
D17*
%TO.C,C57*%
X204080000Y-239700000D03*
X203120000Y-239700000D03*
%TD*%
D29*
%TO.C,C25*%
X204000000Y-254950000D03*
X204000000Y-253050000D03*
%TD*%
D46*
%TO.C,C43*%
X184854000Y-227492000D03*
X182954000Y-227492000D03*
%TD*%
D23*
%TO.C,C29*%
X190020000Y-289100000D03*
X190980000Y-289100000D03*
%TD*%
D40*
%TO.C,R52*%
X164234500Y-282448000D03*
X162409500Y-282448000D03*
%TD*%
D82*
%TO.C,C3*%
X218645000Y-299212000D03*
X215695000Y-299212000D03*
%TD*%
D74*
%TO.C,U5*%
X217805000Y-196063000D03*
X219075000Y-196063000D03*
X220345000Y-196063000D03*
X221615000Y-196063000D03*
X221615000Y-191113000D03*
X220345000Y-191113000D03*
X219075000Y-191113000D03*
X217805000Y-191113000D03*
%TD*%
D27*
%TO.C,TP17*%
X207838500Y-236182000D03*
%TD*%
D23*
%TO.C,C88*%
X196420000Y-240700000D03*
X197380000Y-240700000D03*
%TD*%
D19*
%TO.C,R81*%
X225572000Y-179933000D03*
X225572000Y-181583000D03*
%TD*%
D48*
%TO.C,C27*%
X191700000Y-290220000D03*
X191700000Y-291180000D03*
%TD*%
D76*
%TO.C,D1*%
X202946000Y-299596000D03*
X202946000Y-296796000D03*
%TD*%
D36*
%TO.C,C30*%
X182372000Y-288610000D03*
X182372000Y-290510000D03*
%TD*%
D29*
%TO.C,C32*%
X198374000Y-185140000D03*
X198374000Y-183240000D03*
%TD*%
D27*
%TO.C,TP10*%
X201900000Y-254600000D03*
%TD*%
D56*
%TO.C,C18*%
X223900000Y-180025000D03*
X223900000Y-181575000D03*
%TD*%
D24*
%TO.C,J1*%
X176848002Y-305816000D03*
X168147999Y-305816000D03*
X176848002Y-310896000D03*
X168147999Y-310896000D03*
%TD*%
D34*
%TO.C,C41*%
X171052000Y-235085000D03*
X171052000Y-233535000D03*
%TD*%
D83*
X168900000Y-229300000D03*
X169300000Y-241800000D03*
X169000000Y-238400000D03*
X172200000Y-239200000D03*
X171300000Y-237600000D03*
X166400000Y-240600000D03*
X166600000Y-241300000D03*
X192000000Y-264500000D03*
X206800000Y-255300000D03*
X206764000Y-257264000D03*
X220973500Y-259500000D03*
X220300000Y-259600000D03*
X218300000Y-259900000D03*
X197300000Y-288500000D03*
X185300000Y-237000000D03*
X233000000Y-282300000D03*
X202800000Y-246700000D03*
X202800000Y-248000000D03*
X230000000Y-264200000D03*
X219700000Y-264700000D03*
X192100000Y-257400000D03*
X212600000Y-253100000D03*
X206000000Y-261800000D03*
X207000000Y-260500000D03*
X209400000Y-258100000D03*
X207200000Y-252500000D03*
X206500000Y-253900000D03*
X204200000Y-257300000D03*
X202600000Y-257300000D03*
X208200000Y-262700000D03*
X207200000Y-262800000D03*
X207460000Y-263842500D03*
X206500000Y-265100000D03*
X206800000Y-259100000D03*
X200900000Y-250300000D03*
X200900000Y-234500000D03*
X206700000Y-263900000D03*
X220126800Y-254419300D03*
X219826800Y-259019300D03*
X221026800Y-255219300D03*
X220026800Y-255219300D03*
X220526800Y-255219300D03*
X217926800Y-257219300D03*
X220951922Y-262467222D03*
X223426800Y-262819300D03*
X222826800Y-263419300D03*
X221426800Y-260119300D03*
X224426800Y-258019300D03*
X222926800Y-257819300D03*
X223100000Y-259019300D03*
X219026800Y-260519300D03*
X220826800Y-261519300D03*
X222806800Y-260739300D03*
X223326800Y-256719300D03*
X223126800Y-255819300D03*
X217826800Y-258219300D03*
X218500000Y-271100000D03*
X215100000Y-274400000D03*
X213100000Y-278300000D03*
X196400000Y-278300000D03*
X200200000Y-280300000D03*
X194400000Y-274400000D03*
X169380000Y-284480000D03*
X162599999Y-229897953D03*
X162000000Y-229900000D03*
X180600000Y-286000000D03*
X182400000Y-291700000D03*
X201500000Y-293800000D03*
X216100000Y-296600000D03*
X199000000Y-311800000D03*
X201700000Y-309300000D03*
X204200000Y-311900000D03*
X183300000Y-304700000D03*
X176700000Y-268100000D03*
X243000000Y-239300000D03*
X240700000Y-237300000D03*
X231300000Y-237300000D03*
X205500000Y-235200000D03*
X167000000Y-281400000D03*
X163300000Y-283600000D03*
X162400000Y-289700000D03*
X169100000Y-288500000D03*
X191700000Y-291900000D03*
X189400000Y-293200000D03*
X191700000Y-289100000D03*
X181100000Y-245600000D03*
X175000000Y-235100000D03*
X192000000Y-266500000D03*
X221600000Y-273200000D03*
X193500000Y-269900000D03*
X190900000Y-260200000D03*
X176386000Y-239201308D03*
X191000000Y-255075100D03*
X193300000Y-254900000D03*
X187400000Y-260100000D03*
X188800000Y-262100000D03*
X186700000Y-223000000D03*
X213500000Y-172700000D03*
X183800000Y-238200000D03*
X192429499Y-260270500D03*
X166200000Y-223400000D03*
X192500000Y-265000000D03*
X190900000Y-253800000D03*
X216100000Y-193400000D03*
X178100000Y-236600000D03*
X202300000Y-239800000D03*
X223400000Y-224300000D03*
X190700000Y-264100000D03*
X170800000Y-219900000D03*
X216700000Y-249500000D03*
X205200000Y-247800000D03*
X194800000Y-252700000D03*
X187500000Y-261700000D03*
X187100000Y-252700000D03*
X224600000Y-182700000D03*
X197500000Y-243500000D03*
X242800000Y-223200000D03*
X168800000Y-224900000D03*
X197500000Y-241600000D03*
X216800000Y-250821100D03*
X214600000Y-180700000D03*
X172300000Y-224500000D03*
X191400000Y-259300000D03*
X191100000Y-269700000D03*
X220400000Y-169100000D03*
X213000000Y-248400000D03*
X220500000Y-248400000D03*
X191900000Y-267600000D03*
X170900000Y-244600000D03*
X182400000Y-236500000D03*
X215400000Y-251400000D03*
X224000000Y-230600000D03*
X216426800Y-255419300D03*
X181900000Y-216400000D03*
X208500000Y-243500000D03*
X167600000Y-241900000D03*
X223400000Y-198700000D03*
X163700000Y-236126000D03*
X176386000Y-238214000D03*
X190200000Y-265500000D03*
X165700000Y-236126000D03*
X194250000Y-268250000D03*
X163700000Y-240026000D03*
X215900000Y-253100000D03*
X170900000Y-243400000D03*
X195800000Y-182100000D03*
X207500000Y-228000000D03*
X207000000Y-222000000D03*
X183000000Y-223500000D03*
X204000000Y-229000000D03*
X194250000Y-260750000D03*
X191500000Y-264004102D03*
X194500000Y-263800000D03*
X189490000Y-264760000D03*
X182000000Y-218250000D03*
X215200000Y-228200000D03*
X218300000Y-181200000D03*
X165250000Y-226500000D03*
X218200000Y-172600000D03*
X170250000Y-223250000D03*
X227750000Y-230250000D03*
X200750000Y-230500000D03*
X180500000Y-226500000D03*
X220200000Y-184000000D03*
X220300000Y-172200000D03*
X207400000Y-154400000D03*
X189800000Y-155500000D03*
X199900000Y-155500000D03*
X175600000Y-155500000D03*
X195750000Y-263000000D03*
X194000000Y-262750000D03*
X198400000Y-182100000D03*
X188250000Y-225750000D03*
X173300000Y-233600000D03*
X168200000Y-237800000D03*
X172400000Y-245200000D03*
X166200000Y-239948000D03*
X174000000Y-235700000D03*
X219500000Y-164900000D03*
X191000000Y-226700000D03*
X194900000Y-242200000D03*
X223100000Y-228900000D03*
X213500000Y-174700000D03*
X208500000Y-244700000D03*
X180750000Y-229500000D03*
X202900000Y-244700000D03*
X213400000Y-183200000D03*
X224600000Y-196200000D03*
X202900000Y-242200000D03*
X173300000Y-227400000D03*
X179700000Y-220000000D03*
X203700000Y-238900000D03*
X183500000Y-230000000D03*
X194750000Y-229250000D03*
X163400000Y-224000000D03*
X197900000Y-239600000D03*
X194250000Y-265700000D03*
X194750000Y-261500000D03*
X189000000Y-263000000D03*
M02*
