M48
; DRILL file {KiCad (6.0.7)} date Wed Jan 25 09:18:18 2023
; FORMAT={-:-/ absolute / inch / decimal}
; #@! TF.CreationDate,2023-01-25T09:18:18-05:00
; #@! TF.GenerationSoftware,Kicad,Pcbnew,(6.0.7)
; #@! TF.FileFunction,Plated,1,4,PTH
FMAT,2
INCH
; #@! TA.AperFunction,Plated,PTH,ViaDrill
T1C0.0079
; #@! TA.AperFunction,Plated,PTH,ComponentDrill
T2C0.0118
; #@! TA.AperFunction,Plated,PTH,ComponentDrill
T3C0.0315
; #@! TA.AperFunction,Plated,PTH,ComponentDrill
T4C0.0394
; #@! TA.AperFunction,Plated,PTH,ComponentDrill
T5C0.0472
; #@! TA.AperFunction,Plated,PTH,ComponentDrill
T6C0.0550
; #@! TA.AperFunction,Plated,PTH,ComponentDrill
T7C0.0551
; #@! TA.AperFunction,Plated,PTH,ComponentDrill
T8C0.0670
; #@! TA.AperFunction,Plated,PTH,ComponentDrill
T9C0.0748
%
G90
G05
T1
X6.378Y-9.0512
X6.3937Y-11.4055
X6.4016Y-9.0511
X6.4291Y-11.1654
X6.4331Y-8.8189
X6.4449Y-9.2963
X6.4449Y-9.4498
X6.5059Y-8.9173
X6.5236Y-9.2963
X6.5433Y-8.7953
X6.5433Y-9.4468
X6.5512Y-9.4724
X6.5591Y-9.5
X6.5748Y-11.0787
X6.5984Y-9.5236
X6.622Y-9.3622
X6.6457Y-8.8543
X6.6496Y-9.0276
X6.6535Y-9.3858
X6.6575Y-11.3583
X6.6654Y-9.5197
X6.6685Y-11.2
X6.7028Y-8.7894
X6.7244Y-8.6575
X6.7283Y-9.5827
X6.7283Y-9.6299
X6.7441Y-9.3543
X6.7795Y-9.4173
X6.7835Y-8.8386
X6.7874Y-9.6535
X6.8228Y-8.9528
X6.8228Y-9.1969
X6.8504Y-9.2795
X6.8898Y-9.2559
X6.9134Y-6.122
X6.9443Y-9.3785
X6.9443Y-9.4174
X6.9567Y-10.5551
X7.0118Y-9.315
X7.0748Y-8.6614
X7.1063Y-8.9173
X7.1102Y-11.2598
X7.1161Y-9.0354
X7.1299Y-9.6693
X7.1614Y-8.5197
X7.1654Y-8.5925
X7.1811Y-9.311
X7.1811Y-11.4843
X7.2047Y-8.7992
X7.2165Y-11.9961
X7.2244Y-9.0551
X7.2362Y-9.378
X7.2953Y-9.3307
X7.3504Y-8.7795
X7.3661Y-9.9488
X7.378Y-10.2402
X7.3819Y-10.3031
X7.4114Y-8.8878
X7.4331Y-10.3189
X7.4409Y-10.3543
X7.4567Y-11.5433
X7.4602Y-10.4236
X7.4724Y-6.122
X7.4882Y-10.4528
X7.5079Y-10.3976
X7.5157Y-9.9921
X7.5157Y-10.2441
X7.5197Y-8.9252
X7.5197Y-10.0423
X7.5236Y-10.6181
X7.5354Y-10.2087
X7.5394Y-10.3939
X7.5472Y-11.3819
X7.5472Y-11.4921
X7.5551Y-10.5354
X7.5591Y-10.4134
X7.5591Y-10.4921
X7.563Y-10.1339
X7.576Y-10.2469
X7.5787Y-10.4331
X7.6102Y-10.0354
X7.6181Y-10.626
X7.6378Y-10.3445
X7.6476Y-10.2657
X7.6476Y-10.4606
X7.6476Y-10.561
X7.6535Y-10.8031
X7.6575Y-10.3858
X7.6673Y-9.0256
X7.6673Y-10.2953
X7.6693Y-9.9488
X7.6732Y-9.5354
X7.7067Y-10.3543
X7.7087Y-7.1693
X7.7323Y-10.9567
X7.7677Y-11.3583
X7.7756Y-9.5118
X7.7756Y-9.5866
X7.7913Y-9.4331
X7.811Y-7.1693
X7.8346Y-12.2756
X7.8701Y-6.122
X7.8819Y-11.0354
X7.9035Y-9.0748
X7.9094Y-9.2323
X7.9094Y-9.8543
X7.9331Y-11.5669
X7.9409Y-12.1772
X7.9646Y-9.4409
X7.9764Y-10.1299
X7.9843Y-9.7126
X7.9843Y-9.7638
X7.9882Y-9.5354
X7.9882Y-9.6339
X8.0197Y-9.4055
X8.0315Y-9.0157
X8.0394Y-10.1299
X8.0394Y-12.2795
X8.0787Y-9.7559
X8.0906Y-9.2598
X8.1102Y-10.3071
X8.1299Y-9.9961
X8.1299Y-10.437
X8.1378Y-10.3898
X8.1403Y-10.1285
X8.1417Y-10.0512
X8.1417Y-10.2008
X8.1496Y-8.7402
X8.1496Y-10.2559
X8.1575Y-9.9409
X8.1575Y-10.3465
X8.1654Y-6.0787
X8.1677Y-10.3875
X8.1693Y-8.9764
X8.1969Y-10.3425
X8.2087Y-9.5866
X8.2087Y-9.6339
X8.2441Y-10.1614
X8.3701Y-9.9646
X8.3858Y-9.7795
X8.3898Y-10.9567
X8.4016Y-7.2126
X8.4055Y-6.7992
X8.4055Y-6.878
X8.4488Y-7.1142
X8.4685Y-10.8031
X8.4724Y-8.9843
X8.4803Y-9.8976
X8.5Y-9.9646
X8.5079Y-7.6142
X8.5079Y-11.6772
X8.5207Y-10.0559
X8.5315Y-9.8228
X8.5354Y-9.8748
X8.5759Y-10.1661
X8.5798Y-10.1267
X8.5906Y-6.7953
X8.5945Y-7.1339
X8.5945Y-10.2323
X8.6024Y-10.6732
X8.6231Y-10.2567
X8.6417Y-6.4921
X8.6496Y-10.4213
X8.6546Y-10.1976
X8.6625Y-10.048
X8.6664Y-10.0165
X8.6693Y-7.2441
X8.6732Y-6.7795
X8.6732Y-10.2205
X8.6772Y-6.6575
X8.6811Y-9.7795
X8.6822Y-10.048
X8.694Y-10.296
X8.6989Y-10.3334
X8.6997Y-10.2165
X8.7018Y-10.048
X8.7176Y-10.2409
X8.7244Y-10.7559
X8.7719Y-10.2653
X8.7727Y-10.3708
X8.7766Y-10.1504
X8.7835Y-9.0118
X8.7835Y-10.1976
X8.7845Y-10.0716
X8.7924Y-10.1071
X8.7953Y-7.8228
X8.7953Y-8.8307
X8.7963Y-10.3472
X8.8189Y-9.0787
X8.8357Y-10.1582
X8.8425Y-7.1929
X8.8425Y-7.7244
X8.9665Y-9.065
X9.0551Y-10.4016
X9.1063Y-9.3425
X9.1732Y-11.1142
X9.4764Y-9.3425
X9.5591Y-8.7874
X9.5669Y-9.4213
T2
X6.9213Y-11.2638
X6.9213Y-11.2638
X7.0039Y-11.0197
X7.0039Y-11.0197
X7.0039Y-11.1811
X7.0039Y-11.1811
X7.0079Y-10.6181
X7.0079Y-10.6181
X7.2795Y-9.2402
X7.2795Y-9.2402
X7.3228Y-9.4961
X7.3228Y-9.4961
X7.378Y-10.1732
X7.378Y-10.1732
X7.4567Y-10.4567
X7.4567Y-10.4567
X7.4646Y-10.126
X7.4646Y-10.126
X7.4921Y-10.7874
X7.4921Y-10.7874
X7.5906Y-9.5827
X7.5906Y-9.5827
X7.5906Y-9.6693
X7.5906Y-9.6693
X7.748Y-10.3504
X7.748Y-10.3504
X7.9016Y-9.9764
X7.9016Y-9.9764
X7.9882Y-10.5945
X7.9882Y-10.5945
X8.0157Y-9.3425
X8.0157Y-9.3425
X8.1378Y-9.3425
X8.1378Y-9.3425
X8.1417Y-9.8346
X8.1417Y-9.8346
X8.2756Y-10.5945
X8.2756Y-10.5945
X8.2874Y-10.3031
X8.311Y-11.1614
X8.311Y-11.1614
X8.3937Y-9.4094
X8.3937Y-9.4094
X8.3937Y-9.5
X8.3937Y-9.5
X8.4213Y-6.5197
X8.4213Y-6.5197
X8.5118Y-10.0
X8.5118Y-10.0
X8.5906Y-10.2638
X8.5906Y-10.2638
X8.6417Y-9.9567
X8.6417Y-9.9567
X8.7283Y-8.6496
X8.7283Y-8.6496
X8.7598Y-10.7756
X8.7598Y-10.7756
X8.811Y-10.2874
X8.811Y-10.2874
X8.8701Y-6.5197
X8.8701Y-6.5197
X8.874Y-10.1457
X8.874Y-10.1457
X9.0157Y-8.6496
X9.0157Y-8.6496
X9.2323Y-10.6102
X9.2323Y-10.6102
T3
X6.8565Y-10.8215
X6.9352Y-10.8215
X9.2992Y-10.7795
X9.3549Y-10.8352
T4
X7.1448Y-11.8545
X7.4204Y-11.8545
X7.8732Y-11.6694
X7.8732Y-11.8545
X8.0998Y-11.76
X8.1998Y-11.76
T5
X6.5599Y-10.5315
X6.7567Y-10.5315
X8.7785Y-12.1
X8.9754Y-12.1
X9.0Y-11.62
X9.1969Y-11.62
X9.3742Y-10.4611
X9.571Y-10.4611
T6
X6.6195Y-11.5482
X6.6195Y-11.7482
X6.62Y-12.04
X6.62Y-12.24
X6.8152Y-9.8911
X6.8152Y-10.0911
X6.962Y-11.5482
X6.962Y-11.7482
X6.9625Y-12.04
X6.9625Y-12.24
X7.1577Y-9.8911
X7.1577Y-10.0911
X9.0432Y-9.8629
X9.0432Y-10.0629
X9.3857Y-9.8629
X9.3857Y-10.0629
T7
X6.8538Y-6.2516
X6.8538Y-8.5547
X6.8853Y-8.3402
X6.9601Y-6.4583
X6.9916Y-6.2516
X6.9916Y-8.5547
X7.4238Y-6.2516
X7.4238Y-8.5547
X7.4553Y-8.3402
X7.5301Y-6.4583
X7.5616Y-6.2516
X7.5616Y-8.5547
X7.9638Y-6.2516
X7.9638Y-8.5547
X7.9953Y-8.3402
X8.0701Y-6.4583
X8.1016Y-6.2516
X8.1016Y-8.5547
X9.1311Y-6.25
X9.1311Y-8.5531
X9.1626Y-8.3465
X9.2374Y-6.4646
X9.2689Y-6.25
X9.2689Y-8.5531
T8
X9.2447Y-9.0167
X9.2473Y-9.4883
X9.5202Y-9.0167
X9.5229Y-9.4883
T9
X6.7554Y-6.415
X6.7554Y-8.3913
X7.09Y-6.4583
X7.09Y-8.3402
X7.3254Y-6.415
X7.3254Y-8.3913
X7.66Y-6.4583
X7.66Y-8.3402
X7.8654Y-6.415
X7.8654Y-8.3913
X8.2Y-6.4583
X8.2Y-8.3402
X9.0327Y-6.4646
X9.0327Y-8.3465
X9.3673Y-6.4134
X9.3673Y-8.3898
T0
M30
