%TF.GenerationSoftware,KiCad,Pcbnew,(6.0.7)*%
%TF.CreationDate,2023-01-25T09:18:12-05:00*%
%TF.ProjectId,amp,616d702e-6b69-4636-9164-5f7063625858,0.0*%
%TF.SameCoordinates,Original*%
%TF.FileFunction,Legend,Bot*%
%TF.FilePolarity,Positive*%
%FSLAX46Y46*%
G04 Gerber Fmt 4.6, Leading zero omitted, Abs format (unit mm)*
G04 Created by KiCad (PCBNEW (6.0.7)) date 2023-01-25 09:18:12*
%MOMM*%
%LPD*%
G01*
G04 APERTURE LIST*
%TA.AperFunction,Profile*%
%ADD10C,1.000000*%
%TD*%
%ADD11C,0.075000*%
%ADD12C,0.120000*%
G04 APERTURE END LIST*
D10*
X161080000Y-150000000D02*
X247000000Y-150000000D01*
X247000000Y-150000000D02*
X247000000Y-314760000D01*
X247000000Y-314760000D02*
X161080000Y-314760000D01*
X161080000Y-314760000D02*
X161080000Y-150000000D01*
D11*
%TO.C,R74*%
X216952990Y-258897871D02*
X216714895Y-258731204D01*
X216952990Y-258612157D02*
X216452990Y-258612157D01*
X216452990Y-258802633D01*
X216476800Y-258850252D01*
X216500609Y-258874061D01*
X216548228Y-258897871D01*
X216619657Y-258897871D01*
X216667276Y-258874061D01*
X216691085Y-258850252D01*
X216714895Y-258802633D01*
X216714895Y-258612157D01*
X216452990Y-259064538D02*
X216452990Y-259397871D01*
X216952990Y-259183585D01*
X216619657Y-259802633D02*
X216952990Y-259802633D01*
X216429180Y-259683585D02*
X216786323Y-259564538D01*
X216786323Y-259874061D01*
%TO.C,C70*%
X218805371Y-261497871D02*
X218829180Y-261474061D01*
X218852990Y-261402633D01*
X218852990Y-261355014D01*
X218829180Y-261283585D01*
X218781561Y-261235966D01*
X218733942Y-261212157D01*
X218638704Y-261188347D01*
X218567276Y-261188347D01*
X218472038Y-261212157D01*
X218424419Y-261235966D01*
X218376800Y-261283585D01*
X218352990Y-261355014D01*
X218352990Y-261402633D01*
X218376800Y-261474061D01*
X218400609Y-261497871D01*
X218352990Y-261664538D02*
X218352990Y-261997871D01*
X218852990Y-261783585D01*
X218352990Y-262283585D02*
X218352990Y-262331204D01*
X218376800Y-262378823D01*
X218400609Y-262402633D01*
X218448228Y-262426442D01*
X218543466Y-262450252D01*
X218662514Y-262450252D01*
X218757752Y-262426442D01*
X218805371Y-262402633D01*
X218829180Y-262378823D01*
X218852990Y-262331204D01*
X218852990Y-262283585D01*
X218829180Y-262235966D01*
X218805371Y-262212157D01*
X218757752Y-262188347D01*
X218662514Y-262164538D01*
X218543466Y-262164538D01*
X218448228Y-262188347D01*
X218400609Y-262212157D01*
X218376800Y-262235966D01*
X218352990Y-262283585D01*
%TO.C,C69*%
X218805371Y-263197871D02*
X218829180Y-263174061D01*
X218852990Y-263102633D01*
X218852990Y-263055014D01*
X218829180Y-262983585D01*
X218781561Y-262935966D01*
X218733942Y-262912157D01*
X218638704Y-262888347D01*
X218567276Y-262888347D01*
X218472038Y-262912157D01*
X218424419Y-262935966D01*
X218376800Y-262983585D01*
X218352990Y-263055014D01*
X218352990Y-263102633D01*
X218376800Y-263174061D01*
X218400609Y-263197871D01*
X218352990Y-263626442D02*
X218352990Y-263531204D01*
X218376800Y-263483585D01*
X218400609Y-263459776D01*
X218472038Y-263412157D01*
X218567276Y-263388347D01*
X218757752Y-263388347D01*
X218805371Y-263412157D01*
X218829180Y-263435966D01*
X218852990Y-263483585D01*
X218852990Y-263578823D01*
X218829180Y-263626442D01*
X218805371Y-263650252D01*
X218757752Y-263674061D01*
X218638704Y-263674061D01*
X218591085Y-263650252D01*
X218567276Y-263626442D01*
X218543466Y-263578823D01*
X218543466Y-263483585D01*
X218567276Y-263435966D01*
X218591085Y-263412157D01*
X218638704Y-263388347D01*
X218852990Y-263912157D02*
X218852990Y-264007395D01*
X218829180Y-264055014D01*
X218805371Y-264078823D01*
X218733942Y-264126442D01*
X218638704Y-264150252D01*
X218448228Y-264150252D01*
X218400609Y-264126442D01*
X218376800Y-264102633D01*
X218352990Y-264055014D01*
X218352990Y-263959776D01*
X218376800Y-263912157D01*
X218400609Y-263888347D01*
X218448228Y-263864538D01*
X218567276Y-263864538D01*
X218614895Y-263888347D01*
X218638704Y-263912157D01*
X218662514Y-263959776D01*
X218662514Y-264055014D01*
X218638704Y-264102633D01*
X218614895Y-264126442D01*
X218567276Y-264150252D01*
%TO.C,C54*%
X224348228Y-261297871D02*
X224372038Y-261321680D01*
X224443466Y-261345490D01*
X224491085Y-261345490D01*
X224562514Y-261321680D01*
X224610133Y-261274061D01*
X224633942Y-261226442D01*
X224657752Y-261131204D01*
X224657752Y-261059776D01*
X224633942Y-260964538D01*
X224610133Y-260916919D01*
X224562514Y-260869300D01*
X224491085Y-260845490D01*
X224443466Y-260845490D01*
X224372038Y-260869300D01*
X224348228Y-260893109D01*
X223895847Y-260845490D02*
X224133942Y-260845490D01*
X224157752Y-261083585D01*
X224133942Y-261059776D01*
X224086323Y-261035966D01*
X223967276Y-261035966D01*
X223919657Y-261059776D01*
X223895847Y-261083585D01*
X223872038Y-261131204D01*
X223872038Y-261250252D01*
X223895847Y-261297871D01*
X223919657Y-261321680D01*
X223967276Y-261345490D01*
X224086323Y-261345490D01*
X224133942Y-261321680D01*
X224157752Y-261297871D01*
X223443466Y-261012157D02*
X223443466Y-261345490D01*
X223562514Y-260821680D02*
X223681561Y-261178823D01*
X223372038Y-261178823D01*
%TO.C,R73*%
X223826190Y-255678571D02*
X223588095Y-255511904D01*
X223826190Y-255392857D02*
X223326190Y-255392857D01*
X223326190Y-255583333D01*
X223350000Y-255630952D01*
X223373809Y-255654761D01*
X223421428Y-255678571D01*
X223492857Y-255678571D01*
X223540476Y-255654761D01*
X223564285Y-255630952D01*
X223588095Y-255583333D01*
X223588095Y-255392857D01*
X223326190Y-255845238D02*
X223326190Y-256178571D01*
X223826190Y-255964285D01*
X223326190Y-256321428D02*
X223326190Y-256630952D01*
X223516666Y-256464285D01*
X223516666Y-256535714D01*
X223540476Y-256583333D01*
X223564285Y-256607142D01*
X223611904Y-256630952D01*
X223730952Y-256630952D01*
X223778571Y-256607142D01*
X223802380Y-256583333D01*
X223826190Y-256535714D01*
X223826190Y-256392857D01*
X223802380Y-256345238D01*
X223778571Y-256321428D01*
%TO.C,C55*%
X192071428Y-265321428D02*
X192047619Y-265345238D01*
X192023809Y-265416666D01*
X192023809Y-265464285D01*
X192047619Y-265535714D01*
X192095238Y-265583333D01*
X192142857Y-265607142D01*
X192238095Y-265630952D01*
X192309523Y-265630952D01*
X192404761Y-265607142D01*
X192452380Y-265583333D01*
X192500000Y-265535714D01*
X192523809Y-265464285D01*
X192523809Y-265416666D01*
X192500000Y-265345238D01*
X192476190Y-265321428D01*
X192523809Y-264869047D02*
X192523809Y-265107142D01*
X192285714Y-265130952D01*
X192309523Y-265107142D01*
X192333333Y-265059523D01*
X192333333Y-264940476D01*
X192309523Y-264892857D01*
X192285714Y-264869047D01*
X192238095Y-264845238D01*
X192119047Y-264845238D01*
X192071428Y-264869047D01*
X192047619Y-264892857D01*
X192023809Y-264940476D01*
X192023809Y-265059523D01*
X192047619Y-265107142D01*
X192071428Y-265130952D01*
X192523809Y-264392857D02*
X192523809Y-264630952D01*
X192285714Y-264654761D01*
X192309523Y-264630952D01*
X192333333Y-264583333D01*
X192333333Y-264464285D01*
X192309523Y-264416666D01*
X192285714Y-264392857D01*
X192238095Y-264369047D01*
X192119047Y-264369047D01*
X192071428Y-264392857D01*
X192047619Y-264416666D01*
X192023809Y-264464285D01*
X192023809Y-264583333D01*
X192047619Y-264630952D01*
X192071428Y-264654761D01*
%TO.C,R33*%
X190026190Y-220678571D02*
X189788095Y-220511904D01*
X190026190Y-220392857D02*
X189526190Y-220392857D01*
X189526190Y-220583333D01*
X189550000Y-220630952D01*
X189573809Y-220654761D01*
X189621428Y-220678571D01*
X189692857Y-220678571D01*
X189740476Y-220654761D01*
X189764285Y-220630952D01*
X189788095Y-220583333D01*
X189788095Y-220392857D01*
X189526190Y-220845238D02*
X189526190Y-221154761D01*
X189716666Y-220988095D01*
X189716666Y-221059523D01*
X189740476Y-221107142D01*
X189764285Y-221130952D01*
X189811904Y-221154761D01*
X189930952Y-221154761D01*
X189978571Y-221130952D01*
X190002380Y-221107142D01*
X190026190Y-221059523D01*
X190026190Y-220916666D01*
X190002380Y-220869047D01*
X189978571Y-220845238D01*
X189526190Y-221321428D02*
X189526190Y-221630952D01*
X189716666Y-221464285D01*
X189716666Y-221535714D01*
X189740476Y-221583333D01*
X189764285Y-221607142D01*
X189811904Y-221630952D01*
X189930952Y-221630952D01*
X189978571Y-221607142D01*
X190002380Y-221583333D01*
X190026190Y-221535714D01*
X190026190Y-221392857D01*
X190002380Y-221345238D01*
X189978571Y-221321428D01*
%TO.C,R42*%
X179126190Y-154912571D02*
X178888095Y-154745904D01*
X179126190Y-154626857D02*
X178626190Y-154626857D01*
X178626190Y-154817333D01*
X178650000Y-154864952D01*
X178673809Y-154888761D01*
X178721428Y-154912571D01*
X178792857Y-154912571D01*
X178840476Y-154888761D01*
X178864285Y-154864952D01*
X178888095Y-154817333D01*
X178888095Y-154626857D01*
X178792857Y-155341142D02*
X179126190Y-155341142D01*
X178602380Y-155222095D02*
X178959523Y-155103047D01*
X178959523Y-155412571D01*
X178673809Y-155579238D02*
X178650000Y-155603047D01*
X178626190Y-155650666D01*
X178626190Y-155769714D01*
X178650000Y-155817333D01*
X178673809Y-155841142D01*
X178721428Y-155864952D01*
X178769047Y-155864952D01*
X178840476Y-155841142D01*
X179126190Y-155555428D01*
X179126190Y-155864952D01*
%TO.C,C71*%
X189928571Y-266178571D02*
X189952380Y-266154761D01*
X189976190Y-266083333D01*
X189976190Y-266035714D01*
X189952380Y-265964285D01*
X189904761Y-265916666D01*
X189857142Y-265892857D01*
X189761904Y-265869047D01*
X189690476Y-265869047D01*
X189595238Y-265892857D01*
X189547619Y-265916666D01*
X189500000Y-265964285D01*
X189476190Y-266035714D01*
X189476190Y-266083333D01*
X189500000Y-266154761D01*
X189523809Y-266178571D01*
X189476190Y-266345238D02*
X189476190Y-266678571D01*
X189976190Y-266464285D01*
X189976190Y-267130952D02*
X189976190Y-266845238D01*
X189976190Y-266988095D02*
X189476190Y-266988095D01*
X189547619Y-266940476D01*
X189595238Y-266892857D01*
X189619047Y-266845238D01*
%TO.C,C73*%
X189928571Y-268178571D02*
X189952380Y-268154761D01*
X189976190Y-268083333D01*
X189976190Y-268035714D01*
X189952380Y-267964285D01*
X189904761Y-267916666D01*
X189857142Y-267892857D01*
X189761904Y-267869047D01*
X189690476Y-267869047D01*
X189595238Y-267892857D01*
X189547619Y-267916666D01*
X189500000Y-267964285D01*
X189476190Y-268035714D01*
X189476190Y-268083333D01*
X189500000Y-268154761D01*
X189523809Y-268178571D01*
X189476190Y-268345238D02*
X189476190Y-268678571D01*
X189976190Y-268464285D01*
X189476190Y-268821428D02*
X189476190Y-269130952D01*
X189666666Y-268964285D01*
X189666666Y-269035714D01*
X189690476Y-269083333D01*
X189714285Y-269107142D01*
X189761904Y-269130952D01*
X189880952Y-269130952D01*
X189928571Y-269107142D01*
X189952380Y-269083333D01*
X189976190Y-269035714D01*
X189976190Y-268892857D01*
X189952380Y-268845238D01*
X189928571Y-268821428D01*
%TO.C,R24*%
X207326190Y-154912571D02*
X207088095Y-154745904D01*
X207326190Y-154626857D02*
X206826190Y-154626857D01*
X206826190Y-154817333D01*
X206850000Y-154864952D01*
X206873809Y-154888761D01*
X206921428Y-154912571D01*
X206992857Y-154912571D01*
X207040476Y-154888761D01*
X207064285Y-154864952D01*
X207088095Y-154817333D01*
X207088095Y-154626857D01*
X206873809Y-155103047D02*
X206850000Y-155126857D01*
X206826190Y-155174476D01*
X206826190Y-155293523D01*
X206850000Y-155341142D01*
X206873809Y-155364952D01*
X206921428Y-155388761D01*
X206969047Y-155388761D01*
X207040476Y-155364952D01*
X207326190Y-155079238D01*
X207326190Y-155388761D01*
X206992857Y-155817333D02*
X207326190Y-155817333D01*
X206802380Y-155698285D02*
X207159523Y-155579238D01*
X207159523Y-155888761D01*
%TO.C,C62*%
X225478571Y-256778571D02*
X225502380Y-256754761D01*
X225526190Y-256683333D01*
X225526190Y-256635714D01*
X225502380Y-256564285D01*
X225454761Y-256516666D01*
X225407142Y-256492857D01*
X225311904Y-256469047D01*
X225240476Y-256469047D01*
X225145238Y-256492857D01*
X225097619Y-256516666D01*
X225050000Y-256564285D01*
X225026190Y-256635714D01*
X225026190Y-256683333D01*
X225050000Y-256754761D01*
X225073809Y-256778571D01*
X225026190Y-257207142D02*
X225026190Y-257111904D01*
X225050000Y-257064285D01*
X225073809Y-257040476D01*
X225145238Y-256992857D01*
X225240476Y-256969047D01*
X225430952Y-256969047D01*
X225478571Y-256992857D01*
X225502380Y-257016666D01*
X225526190Y-257064285D01*
X225526190Y-257159523D01*
X225502380Y-257207142D01*
X225478571Y-257230952D01*
X225430952Y-257254761D01*
X225311904Y-257254761D01*
X225264285Y-257230952D01*
X225240476Y-257207142D01*
X225216666Y-257159523D01*
X225216666Y-257064285D01*
X225240476Y-257016666D01*
X225264285Y-256992857D01*
X225311904Y-256969047D01*
X225073809Y-257445238D02*
X225050000Y-257469047D01*
X225026190Y-257516666D01*
X225026190Y-257635714D01*
X225050000Y-257683333D01*
X225073809Y-257707142D01*
X225121428Y-257730952D01*
X225169047Y-257730952D01*
X225240476Y-257707142D01*
X225526190Y-257421428D01*
X225526190Y-257730952D01*
%TO.C,R28*%
X203726190Y-220678571D02*
X203488095Y-220511904D01*
X203726190Y-220392857D02*
X203226190Y-220392857D01*
X203226190Y-220583333D01*
X203250000Y-220630952D01*
X203273809Y-220654761D01*
X203321428Y-220678571D01*
X203392857Y-220678571D01*
X203440476Y-220654761D01*
X203464285Y-220630952D01*
X203488095Y-220583333D01*
X203488095Y-220392857D01*
X203273809Y-220869047D02*
X203250000Y-220892857D01*
X203226190Y-220940476D01*
X203226190Y-221059523D01*
X203250000Y-221107142D01*
X203273809Y-221130952D01*
X203321428Y-221154761D01*
X203369047Y-221154761D01*
X203440476Y-221130952D01*
X203726190Y-220845238D01*
X203726190Y-221154761D01*
X203440476Y-221440476D02*
X203416666Y-221392857D01*
X203392857Y-221369047D01*
X203345238Y-221345238D01*
X203321428Y-221345238D01*
X203273809Y-221369047D01*
X203250000Y-221392857D01*
X203226190Y-221440476D01*
X203226190Y-221535714D01*
X203250000Y-221583333D01*
X203273809Y-221607142D01*
X203321428Y-221630952D01*
X203345238Y-221630952D01*
X203392857Y-221607142D01*
X203416666Y-221583333D01*
X203440476Y-221535714D01*
X203440476Y-221440476D01*
X203464285Y-221392857D01*
X203488095Y-221369047D01*
X203535714Y-221345238D01*
X203630952Y-221345238D01*
X203678571Y-221369047D01*
X203702380Y-221392857D01*
X203726190Y-221440476D01*
X203726190Y-221535714D01*
X203702380Y-221583333D01*
X203678571Y-221607142D01*
X203630952Y-221630952D01*
X203535714Y-221630952D01*
X203488095Y-221607142D01*
X203464285Y-221583333D01*
X203440476Y-221535714D01*
%TO.C,C63*%
X196678571Y-261580571D02*
X196702380Y-261556761D01*
X196726190Y-261485333D01*
X196726190Y-261437714D01*
X196702380Y-261366285D01*
X196654761Y-261318666D01*
X196607142Y-261294857D01*
X196511904Y-261271047D01*
X196440476Y-261271047D01*
X196345238Y-261294857D01*
X196297619Y-261318666D01*
X196250000Y-261366285D01*
X196226190Y-261437714D01*
X196226190Y-261485333D01*
X196250000Y-261556761D01*
X196273809Y-261580571D01*
X196226190Y-262009142D02*
X196226190Y-261913904D01*
X196250000Y-261866285D01*
X196273809Y-261842476D01*
X196345238Y-261794857D01*
X196440476Y-261771047D01*
X196630952Y-261771047D01*
X196678571Y-261794857D01*
X196702380Y-261818666D01*
X196726190Y-261866285D01*
X196726190Y-261961523D01*
X196702380Y-262009142D01*
X196678571Y-262032952D01*
X196630952Y-262056761D01*
X196511904Y-262056761D01*
X196464285Y-262032952D01*
X196440476Y-262009142D01*
X196416666Y-261961523D01*
X196416666Y-261866285D01*
X196440476Y-261818666D01*
X196464285Y-261794857D01*
X196511904Y-261771047D01*
X196226190Y-262223428D02*
X196226190Y-262532952D01*
X196416666Y-262366285D01*
X196416666Y-262437714D01*
X196440476Y-262485333D01*
X196464285Y-262509142D01*
X196511904Y-262532952D01*
X196630952Y-262532952D01*
X196678571Y-262509142D01*
X196702380Y-262485333D01*
X196726190Y-262437714D01*
X196726190Y-262294857D01*
X196702380Y-262247238D01*
X196678571Y-262223428D01*
%TO.C,R29*%
X193626190Y-154912571D02*
X193388095Y-154745904D01*
X193626190Y-154626857D02*
X193126190Y-154626857D01*
X193126190Y-154817333D01*
X193150000Y-154864952D01*
X193173809Y-154888761D01*
X193221428Y-154912571D01*
X193292857Y-154912571D01*
X193340476Y-154888761D01*
X193364285Y-154864952D01*
X193388095Y-154817333D01*
X193388095Y-154626857D01*
X193173809Y-155103047D02*
X193150000Y-155126857D01*
X193126190Y-155174476D01*
X193126190Y-155293523D01*
X193150000Y-155341142D01*
X193173809Y-155364952D01*
X193221428Y-155388761D01*
X193269047Y-155388761D01*
X193340476Y-155364952D01*
X193626190Y-155079238D01*
X193626190Y-155388761D01*
X193626190Y-155626857D02*
X193626190Y-155722095D01*
X193602380Y-155769714D01*
X193578571Y-155793523D01*
X193507142Y-155841142D01*
X193411904Y-155864952D01*
X193221428Y-155864952D01*
X193173809Y-155841142D01*
X193150000Y-155817333D01*
X193126190Y-155769714D01*
X193126190Y-155674476D01*
X193150000Y-155626857D01*
X193173809Y-155603047D01*
X193221428Y-155579238D01*
X193340476Y-155579238D01*
X193388095Y-155603047D01*
X193411904Y-155626857D01*
X193435714Y-155674476D01*
X193435714Y-155769714D01*
X193411904Y-155817333D01*
X193388095Y-155841142D01*
X193340476Y-155864952D01*
%TO.C,R75*%
X195071428Y-261476190D02*
X195238095Y-261238095D01*
X195357142Y-261476190D02*
X195357142Y-260976190D01*
X195166666Y-260976190D01*
X195119047Y-261000000D01*
X195095238Y-261023809D01*
X195071428Y-261071428D01*
X195071428Y-261142857D01*
X195095238Y-261190476D01*
X195119047Y-261214285D01*
X195166666Y-261238095D01*
X195357142Y-261238095D01*
X194904761Y-260976190D02*
X194571428Y-260976190D01*
X194785714Y-261476190D01*
X194142857Y-260976190D02*
X194380952Y-260976190D01*
X194404761Y-261214285D01*
X194380952Y-261190476D01*
X194333333Y-261166666D01*
X194214285Y-261166666D01*
X194166666Y-261190476D01*
X194142857Y-261214285D01*
X194119047Y-261261904D01*
X194119047Y-261380952D01*
X194142857Y-261428571D01*
X194166666Y-261452380D01*
X194214285Y-261476190D01*
X194333333Y-261476190D01*
X194380952Y-261452380D01*
X194404761Y-261428571D01*
%TO.C,R46*%
X175526190Y-220698571D02*
X175288095Y-220531904D01*
X175526190Y-220412857D02*
X175026190Y-220412857D01*
X175026190Y-220603333D01*
X175050000Y-220650952D01*
X175073809Y-220674761D01*
X175121428Y-220698571D01*
X175192857Y-220698571D01*
X175240476Y-220674761D01*
X175264285Y-220650952D01*
X175288095Y-220603333D01*
X175288095Y-220412857D01*
X175192857Y-221127142D02*
X175526190Y-221127142D01*
X175002380Y-221008095D02*
X175359523Y-220889047D01*
X175359523Y-221198571D01*
X175026190Y-221603333D02*
X175026190Y-221508095D01*
X175050000Y-221460476D01*
X175073809Y-221436666D01*
X175145238Y-221389047D01*
X175240476Y-221365238D01*
X175430952Y-221365238D01*
X175478571Y-221389047D01*
X175502380Y-221412857D01*
X175526190Y-221460476D01*
X175526190Y-221555714D01*
X175502380Y-221603333D01*
X175478571Y-221627142D01*
X175430952Y-221650952D01*
X175311904Y-221650952D01*
X175264285Y-221627142D01*
X175240476Y-221603333D01*
X175216666Y-221555714D01*
X175216666Y-221460476D01*
X175240476Y-221412857D01*
X175264285Y-221389047D01*
X175311904Y-221365238D01*
%TO.C,R76*%
X188226190Y-263678571D02*
X187988095Y-263511904D01*
X188226190Y-263392857D02*
X187726190Y-263392857D01*
X187726190Y-263583333D01*
X187750000Y-263630952D01*
X187773809Y-263654761D01*
X187821428Y-263678571D01*
X187892857Y-263678571D01*
X187940476Y-263654761D01*
X187964285Y-263630952D01*
X187988095Y-263583333D01*
X187988095Y-263392857D01*
X187726190Y-263845238D02*
X187726190Y-264178571D01*
X188226190Y-263964285D01*
X187726190Y-264583333D02*
X187726190Y-264488095D01*
X187750000Y-264440476D01*
X187773809Y-264416666D01*
X187845238Y-264369047D01*
X187940476Y-264345238D01*
X188130952Y-264345238D01*
X188178571Y-264369047D01*
X188202380Y-264392857D01*
X188226190Y-264440476D01*
X188226190Y-264535714D01*
X188202380Y-264583333D01*
X188178571Y-264607142D01*
X188130952Y-264630952D01*
X188011904Y-264630952D01*
X187964285Y-264607142D01*
X187940476Y-264583333D01*
X187916666Y-264535714D01*
X187916666Y-264440476D01*
X187940476Y-264392857D01*
X187964285Y-264369047D01*
X188011904Y-264345238D01*
D12*
%TO.C,J2*%
X177216903Y-289475900D02*
G75*
G03*
X177216903Y-289475900I-381000J0D01*
G01*
%TO.C,R74*%
X217146800Y-259065659D02*
X217146800Y-259372941D01*
X217906800Y-259065659D02*
X217906800Y-259372941D01*
%TO.C,C70*%
X220888052Y-262254300D02*
X220365548Y-262254300D01*
X220888052Y-260784300D02*
X220365548Y-260784300D01*
%TO.C,J5*%
X230077597Y-259446100D02*
G75*
G03*
X230077597Y-259446100I-381000J0D01*
G01*
%TO.C,C69*%
X220888052Y-264254300D02*
X220365548Y-264254300D01*
X220888052Y-262784300D02*
X220365548Y-262784300D01*
%TO.C,C54*%
X222765548Y-259084300D02*
X223288052Y-259084300D01*
X222765548Y-260554300D02*
X223288052Y-260554300D01*
%TO.C,J6*%
X182187502Y-247385900D02*
G75*
G03*
X182187502Y-247385900I-381000J0D01*
G01*
%TO.C,R73*%
X223906800Y-257565659D02*
X223906800Y-257872941D01*
X223146800Y-257565659D02*
X223146800Y-257872941D01*
%TO.C,J1*%
X177229002Y-301967900D02*
G75*
G03*
X177229002Y-301967900I-381000J0D01*
G01*
%TO.C,C55*%
X193988748Y-265485000D02*
X194511252Y-265485000D01*
X193988748Y-264015000D02*
X194511252Y-264015000D01*
%TO.C,R33*%
X189203000Y-221247064D02*
X189203000Y-220792936D01*
X187733000Y-221247064D02*
X187733000Y-220792936D01*
%TO.C,R42*%
X176811000Y-155461064D02*
X176811000Y-155006936D01*
X178281000Y-155461064D02*
X178281000Y-155006936D01*
%TO.C,C71*%
X192011252Y-267235000D02*
X191488748Y-267235000D01*
X192011252Y-265765000D02*
X191488748Y-265765000D01*
%TO.C,C73*%
X192011252Y-269235000D02*
X191488748Y-269235000D01*
X192011252Y-267765000D02*
X191488748Y-267765000D01*
%TO.C,R24*%
X205005000Y-155461064D02*
X205005000Y-155006936D01*
X206475000Y-155461064D02*
X206475000Y-155006936D01*
%TO.C,C62*%
X224786800Y-257227136D02*
X224786800Y-257011464D01*
X224066800Y-257227136D02*
X224066800Y-257011464D01*
%TO.C,R28*%
X201449000Y-221247064D02*
X201449000Y-220792936D01*
X202919000Y-221247064D02*
X202919000Y-220792936D01*
%TO.C,C63*%
X196110000Y-262009836D02*
X196110000Y-261794164D01*
X195390000Y-262009836D02*
X195390000Y-261794164D01*
%TO.C,R29*%
X191289000Y-155461064D02*
X191289000Y-155006936D01*
X192759000Y-155461064D02*
X192759000Y-155006936D01*
%TO.C,R75*%
X195130000Y-262346359D02*
X195130000Y-262653641D01*
X194370000Y-262346359D02*
X194370000Y-262653641D01*
%TO.C,R46*%
X174725000Y-221247064D02*
X174725000Y-220792936D01*
X173255000Y-221247064D02*
X173255000Y-220792936D01*
%TO.C,R76*%
X188370000Y-263846359D02*
X188370000Y-264153641D01*
X189130000Y-263846359D02*
X189130000Y-264153641D01*
%TD*%
M02*
